<svg xmlns="http://www.w3.org/2000/svg" xmlns:xlink="http://www.w3.org/1999/xlink" width="166" height="49" style=""><rect id="backgroundrect" width="100%" height="100%" x="0" y="0" fill="none" stroke="none"/><defs><path id="a" d="M.014.03h93.96v48.29H.015z"/></defs><g class="currentLayer" style=""><title>Layer 1</title><g fill="#ffffff" fill-rule="evenodd" id="svg_1" class="" fill-opacity="1"><path d="M0 14.13v.123l27.95 13.13L56 14.209v-.033L27.95 1 0 14.13zm10.077.062L27.95 5.795l17.877 8.397-17.877 8.396-17.874-8.396zM27.95 32.483L0 19.55v4.784l27.95 12.964L56 24.289v-4.784L27.95 32.483zm0 9.703L0 29.25v4.783L27.95 47 56 33.99v-4.784l-28.05 12.98z" fill="#ffffff" id="svg_2" fill-opacity="1"/><g id="svg_3" fill="#ffffff" fill-opacity="1"><mask id="b" fill="#fff" transform="translate(72,0) "><use xlink:href="#a" id="svg_4"/></mask><path d="M159.56,24.152 a8.1,8.1 0 0 0 -2.161,-5.573 a7.259,7.259 0 0 0 -2.34,-1.673 a6.864,6.864 0 0 0 -2.85,-0.6010000000000001 c-1.01,0 -1.961,0.2 -2.8520000000000003,0.6010000000000001 a7.257,7.257 0 0 0 -2.34,1.673 a8.102,8.102 0 0 0 -2.16,5.574 a8.102,8.102 0 0 0 2.16,5.573 a7.257,7.257 0 0 0 2.34,1.6720000000000002 a6.864,6.864 0 0 0 2.851,0.6020000000000001 c1.01,0 1.96,-0.2 2.8520000000000003,-0.6020000000000001 a7.259,7.259 0 0 0 2.339,-1.6720000000000002 a8.1,8.1 0 0 0 2.16,-5.574 zm6.415,0 c0,1.932 -0.35700000000000004,3.723 -1.07,5.373 a13.098,13.098 0 0 1 -2.94,4.28 c-1.247,1.205 -2.71,2.156 -4.388,2.854 c-1.6780000000000002,0.6990000000000002 -3.468,1.048 -5.369,1.048 c-1.9,0 -3.6830000000000003,-0.3490000000000001 -5.346,-1.048 a13.863,13.863 0 0 1 -4.366,-2.8760000000000003 a13.351,13.351 0 0 1 -2.94,-4.302 c-0.7130000000000001,-1.6500000000000001 -1.07,-3.426 -1.07,-5.329 c0,-1.8730000000000002 0.36400000000000005,-3.6340000000000003 1.092,-5.284 a13.92,13.92 0 0 1 2.962,-4.325 a13.671,13.671 0 0 1 4.367,-2.898 a13.552,13.552 0 0 1 5.301,-1.048 c1.901,0 3.6900000000000004,0.35000000000000003 5.369,1.048 c1.6780000000000002,0.6980000000000002 3.14,1.6500000000000001 4.388,2.854 c1.248,1.204 2.228,2.638 2.94,4.302 c0.7130000000000001,1.665 1.07,3.449 1.07,5.351 zM136.25799999999998,36.905 a8.6,8.6 0 0 1 -1.715,0.5800000000000001 c-0.6380000000000001,0.14800000000000002 -1.3,0.22200000000000003 -1.982,0.22200000000000003 a9.84,9.84 0 0 1 -2.74,-0.37900000000000006 a6.003,6.003 0 0 1 -2.295,-1.226 c-0.6530000000000001,-0.5650000000000001 -1.173,-1.3 -1.56,-2.207 c-0.38500000000000006,-0.907 -0.5780000000000001,-2 -0.5780000000000001,-3.277 V0.029000000000000005 h6.549 v29.474 c0,1.07 0.21500000000000002,1.806 0.6460000000000001,2.207 c0.43000000000000005,0.401 0.9430000000000001,0.6020000000000001 1.537,0.6020000000000001 c0.7420000000000001,0 1.455,-0.22300000000000003 2.138,-0.6690000000000002 v5.2620000000000005 zM122.49199999999999,11.22 L110.908,41.854 c-0.8610000000000001,2.289 -1.99,3.939 -3.386,4.95 c-1.3960000000000001,1.01 -3.06,1.5150000000000001 -4.99,1.5150000000000001 c-0.29700000000000004,0 -0.6230000000000001,-0.022000000000000006 -0.98,-0.06600000000000002 a7.352,7.352 0 0 1 -1.025,-0.201 l-2.138,-5.975 a8.486,8.486 0 0 0 1.56,0.557 c0.534,0.134 1.039,0.201 1.514,0.201 c1.01,0 1.9300000000000002,-0.23 2.762,-0.6910000000000002 c0.8320000000000001,-0.46 1.47,-1.315 1.916,-2.564 l0.8910000000000001,-2.5860000000000003 l-9.935,-25.773 h6.995 l5.925,16.588 l5.57,-16.588 h6.905 zM95.538,7.3420000000000005 H78.786 v8.294 h16.529 v5.618 H78.785 v15.784 H72.015 V1.412 h23.524 v5.93 z" fill="#ffffff" mask="url(#b)" id="svg_5" fill-opacity="1"/></g></g></g></svg>